<svg xmlns="http://www.w3.org/2000/svg" width="18" height="18" viewBox="0 0 24 24" fill="white"><path fill-rule="evenodd" clip-rule="evenodd" d="M3.60001 5.9998C3.60001 5.33706 4.13726 4.7998 4.80001 4.7998H19.2C19.8627 4.7998 20.4 5.33706 20.4 5.9998C20.4 6.66255 19.8627 7.1998 19.2 7.1998H4.80001C4.13726 7.1998 3.60001 6.66255 3.60001 5.9998Z"></path><path fill-rule="evenodd" clip-rule="evenodd" d="M3.60001 11.9998C3.60001 11.3371 4.13726 10.7998 4.80001 10.7998H19.2C19.8627 10.7998 20.4 11.3371 20.4 11.9998C20.4 12.6625 19.8627 13.1998 19.2 13.1998H4.80001C4.13726 13.1998 3.60001 12.6625 3.60001 11.9998Z"></path><path fill-rule="evenodd" clip-rule="evenodd" d="M3.60001 17.9998C3.60001 17.3371 4.13726 16.7998 4.80001 16.7998H19.2C19.8627 16.7998 20.4 17.3371 20.4 17.9998C20.4 18.6625 19.8627 19.1998 19.2 19.1998H4.80001C4.13726 19.1998 3.60001 18.6625 3.60001 17.9998Z"></path></svg>